<svg width="342" height="225" viewBox="0 0 342 225" fill="none" xmlns="http://www.w3.org/2000/svg">
<path d="M22.5225 100.795C22.4125 101.867 22.33 102.912 22.275 103.93C22.2475 104.947 22.2338 105.731 22.2338 106.281C22.2338 106.914 22.2475 107.519 22.275 108.096C22.3025 108.674 22.33 109.182 22.3575 109.622H21.4088C21.1888 107.642 20.8863 106.089 20.5013 104.961C20.1163 103.806 19.4975 102.981 18.645 102.486C17.82 101.991 16.5825 101.744 14.9325 101.744H12.5813C11.6738 101.744 10.9863 101.826 10.5188 101.991C10.0513 102.129 9.735 102.431 9.57 102.899C9.405 103.366 9.3225 104.095 9.3225 105.085V125.586C9.3225 126.576 9.41875 127.332 9.61125 127.855C9.83125 128.35 10.2438 128.68 10.8488 128.845C11.4813 129.01 12.375 129.12 13.53 129.175V130C12.7875 129.945 11.8388 129.917 10.6838 129.917C9.55625 129.89 8.3875 129.876 7.1775 129.876C6.105 129.876 5.07375 129.89 4.08375 129.917C3.12125 129.917 2.31 129.945 1.65 130V129.175C2.585 129.12 3.28625 129.01 3.75375 128.845C4.22125 128.68 4.5375 128.35 4.7025 127.855C4.8675 127.36 4.95 126.617 4.95 125.627V105.167C4.95 104.15 4.8675 103.407 4.7025 102.94C4.5375 102.445 4.22125 102.115 3.75375 101.95C3.28625 101.757 2.585 101.647 1.65 101.62V100.795C2.695 100.822 3.795 100.85 4.95 100.877C6.105 100.877 7.24625 100.891 8.37375 100.919C9.50125 100.919 10.5463 100.919 11.5088 100.919C12.4988 100.919 13.2963 100.919 13.9013 100.919C15.1663 100.919 16.5963 100.919 18.1913 100.919C19.8138 100.891 21.2575 100.85 22.5225 100.795ZM16.2113 115.274C16.2113 115.274 16.2113 115.411 16.2113 115.686C16.2113 115.961 16.2113 116.099 16.2113 116.099H8.085C8.085 116.099 8.085 115.961 8.085 115.686C8.085 115.411 8.085 115.274 8.085 115.274H16.2113ZM17.0363 109.829C16.9263 111.396 16.8713 112.592 16.8713 113.417C16.8988 114.242 16.9125 114.999 16.9125 115.686C16.9125 116.374 16.9263 117.13 16.9538 117.955C16.9813 118.78 17.05 119.976 17.16 121.544H16.2113C16.1013 120.636 15.9363 119.77 15.7163 118.945C15.5238 118.092 15.1525 117.405 14.6025 116.882C14.08 116.36 13.2275 116.099 12.045 116.099V115.274C12.925 115.274 13.6125 115.095 14.1075 114.737C14.6025 114.352 14.9738 113.871 15.2213 113.294C15.4963 112.716 15.6888 112.125 15.7988 111.52C15.9088 110.887 16.005 110.324 16.0875 109.829H17.0363ZM30.0535 130.289C28.926 130.289 27.9498 130.069 27.1248 129.629C26.2998 129.189 25.6673 128.584 25.2273 127.814C24.8148 127.044 24.6085 126.164 24.6085 125.174C24.6085 123.964 24.8835 122.974 25.4335 122.204C26.011 121.434 26.726 120.815 27.5785 120.347C28.4585 119.88 29.3798 119.495 30.3423 119.192C31.3323 118.89 32.2673 118.601 33.1473 118.326C34.0273 118.024 34.7423 117.68 35.2923 117.295C35.8423 116.882 36.1173 116.36 36.1173 115.727V113.046C36.1173 111.974 35.9523 111.149 35.6223 110.571C35.3198 109.966 34.8798 109.554 34.3023 109.334C33.7523 109.114 33.1198 109.004 32.4048 109.004C31.7448 109.004 31.0435 109.1 30.301 109.292C29.5585 109.457 28.9673 109.815 28.5273 110.365C29.1048 110.502 29.586 110.805 29.971 111.272C30.356 111.74 30.5485 112.317 30.5485 113.005C30.5485 113.747 30.301 114.339 29.806 114.779C29.3385 115.191 28.7473 115.397 28.0323 115.397C27.2073 115.397 26.5885 115.136 26.176 114.614C25.791 114.091 25.5985 113.486 25.5985 112.799C25.5985 112.056 25.7773 111.465 26.1348 111.025C26.4923 110.557 26.9598 110.131 27.5373 109.746C28.1973 109.306 29.036 108.935 30.0535 108.632C31.0985 108.33 32.2535 108.179 33.5185 108.179C34.6735 108.179 35.6635 108.316 36.4885 108.591C37.341 108.839 38.0423 109.224 38.5923 109.746C39.2798 110.406 39.7335 111.204 39.9535 112.139C40.1735 113.074 40.2835 114.215 40.2835 115.562V126.989C40.2835 127.676 40.3798 128.171 40.5723 128.474C40.7648 128.749 41.0673 128.886 41.4798 128.886C41.7823 128.886 42.0573 128.817 42.3048 128.68C42.5798 128.542 42.896 128.336 43.2535 128.061L43.7073 128.762C43.1298 129.202 42.5523 129.574 41.9748 129.876C41.4248 130.151 40.696 130.289 39.7885 130.289C38.9635 130.289 38.276 130.151 37.726 129.876C37.2035 129.601 36.8048 129.202 36.5298 128.68C36.2823 128.13 36.1585 127.47 36.1585 126.7C35.416 127.882 34.536 128.776 33.5185 129.381C32.5285 129.986 31.3735 130.289 30.0535 130.289ZM31.8273 128.432C32.6798 128.432 33.4635 128.199 34.1785 127.731C34.8935 127.264 35.5398 126.549 36.1173 125.586V117.419C35.8148 117.886 35.361 118.285 34.756 118.615C34.1785 118.917 33.5323 119.234 32.8173 119.564C32.1298 119.894 31.4698 120.265 30.8373 120.677C30.2048 121.09 29.6823 121.64 29.2698 122.327C28.8848 122.987 28.6923 123.854 28.6923 124.926C28.6923 125.999 28.9673 126.851 29.5173 127.484C30.0948 128.116 30.8648 128.432 31.8273 128.432ZM57.5653 108.179C59.7928 108.179 61.6353 109.1 63.0928 110.942C64.5778 112.757 65.3203 115.535 65.3203 119.275C65.3203 121.832 64.8941 123.95 64.0416 125.627C63.2166 127.305 62.0891 128.556 60.6591 129.381C59.2566 130.179 57.7303 130.578 56.0803 130.578C54.7603 130.578 53.4816 130.234 52.2441 129.546C51.0341 128.831 50.1128 127.772 49.4803 126.37L50.2641 126.659C50.8966 127.676 51.6941 128.432 52.6566 128.927C53.6191 129.395 54.5953 129.629 55.5853 129.629C57.3453 129.629 58.6653 128.804 59.5453 127.154C60.4528 125.476 60.9066 122.891 60.9066 119.399C60.9066 117.144 60.7278 115.287 60.3703 113.83C60.0403 112.345 59.5178 111.259 58.8028 110.571C58.0878 109.856 57.1941 109.499 56.1216 109.499C54.9116 109.499 53.7841 110.035 52.7391 111.107C51.7216 112.18 51.1028 113.734 50.8828 115.769L50.4703 115.026C50.8003 112.854 51.6116 111.176 52.9041 109.994C54.2241 108.784 55.7778 108.179 57.5653 108.179ZM51.1716 97.7012V128.102C50.7316 128.322 50.2916 128.57 49.8516 128.845C49.4116 129.12 48.9853 129.409 48.5728 129.711C48.1878 130.014 47.8028 130.33 47.4178 130.66L46.7166 130.371C46.8266 129.986 46.8953 129.601 46.9228 129.216C46.9778 128.804 47.0053 128.391 47.0053 127.979V102.651C47.0053 101.414 46.7853 100.506 46.3453 99.9287C45.9328 99.3237 45.1353 99.0212 43.9528 99.0212V98.155C44.8328 98.2375 45.6853 98.2787 46.5103 98.2787C47.3903 98.2787 48.2153 98.2375 48.9853 98.155C49.7828 98.045 50.5116 97.8937 51.1716 97.7012ZM81.4236 108.179C82.1936 108.179 82.8536 108.344 83.4036 108.674C83.9811 108.976 84.4211 109.375 84.7236 109.87C85.0536 110.365 85.2186 110.915 85.2186 111.52C85.2186 112.262 84.9849 112.909 84.5174 113.459C84.0499 114.009 83.4311 114.284 82.6611 114.284C82.0286 114.284 81.4786 114.091 81.0111 113.706C80.5436 113.321 80.3099 112.771 80.3099 112.056C80.3099 111.479 80.4611 110.997 80.7636 110.612C81.0661 110.2 81.4099 109.87 81.7949 109.622C81.5749 109.375 81.2724 109.265 80.8874 109.292C80.0899 109.32 79.3611 109.581 78.7011 110.076C78.0411 110.544 77.4774 111.149 77.0099 111.891C76.5424 112.634 76.1711 113.417 75.8961 114.242C75.6486 115.067 75.5249 115.851 75.5249 116.594V125.751C75.5249 127.099 75.8961 128.006 76.6386 128.474C77.4086 128.914 78.4674 129.134 79.8149 129.134V130C79.1824 129.972 78.2749 129.945 77.0924 129.917C75.9374 129.862 74.7136 129.835 73.4211 129.835C72.4586 129.835 71.4961 129.862 70.5336 129.917C69.5711 129.945 68.8424 129.972 68.3474 130V129.134C69.4474 129.134 70.2311 128.927 70.6986 128.515C71.1661 128.102 71.3999 127.319 71.3999 126.164V113.252C71.3999 112.015 71.1799 111.107 70.7399 110.53C70.3274 109.925 69.5299 109.622 68.3474 109.622V108.756C69.2274 108.839 70.0799 108.88 70.9049 108.88C71.7849 108.88 72.6099 108.839 73.3799 108.756C74.1774 108.646 74.8924 108.495 75.5249 108.302V113.17C75.8549 112.4 76.2949 111.63 76.8449 110.86C77.3949 110.09 78.0549 109.457 78.8249 108.962C79.6224 108.44 80.4886 108.179 81.4236 108.179ZM91.7039 98.3612C92.5014 98.3612 93.1752 98.6362 93.7252 99.1862C94.2752 99.7087 94.5502 100.355 94.5502 101.125C94.5502 101.895 94.2752 102.541 93.7252 103.064C93.1752 103.586 92.5014 103.847 91.7039 103.847C90.9064 103.847 90.2327 103.586 89.6827 103.064C89.1327 102.541 88.8577 101.895 88.8577 101.125C88.8577 100.355 89.1327 99.7087 89.6827 99.1862C90.2327 98.6362 90.9064 98.3612 91.7039 98.3612ZM94.0552 108.302V126.164C94.0552 127.319 94.2889 128.102 94.7564 128.515C95.2239 128.927 96.0077 129.134 97.1077 129.134V130C96.6402 129.972 95.9114 129.945 94.9214 129.917C93.9589 129.862 92.9827 129.835 91.9927 129.835C91.0577 129.835 90.0952 129.862 89.1052 129.917C88.1152 129.945 87.3727 129.972 86.8777 130V129.134C87.9777 129.134 88.7614 128.927 89.2289 128.515C89.6964 128.102 89.9302 127.319 89.9302 126.164V113.252C89.9302 112.015 89.7102 111.107 89.2702 110.53C88.8577 109.925 88.0602 109.622 86.8777 109.622V108.756C87.7577 108.839 88.6102 108.88 89.4352 108.88C90.3152 108.88 91.1402 108.839 91.9102 108.756C92.7077 108.646 93.4227 108.495 94.0552 108.302ZM105.971 97.66V126.164C105.971 127.319 106.164 128.102 106.549 128.515C106.961 128.927 107.663 129.134 108.653 129.134V130C108.185 129.972 107.498 129.945 106.59 129.917C105.71 129.862 104.816 129.835 103.909 129.835C102.946 129.835 101.97 129.862 100.98 129.917C99.99 129.945 99.2613 129.972 98.7938 130V129.134C99.8938 129.134 100.664 128.927 101.104 128.515C101.571 128.102 101.805 127.319 101.805 126.164V102.61C101.805 101.372 101.585 100.465 101.145 99.8875C100.733 99.2825 99.9488 98.98 98.7938 98.98V98.1137C99.6738 98.1962 100.526 98.2375 101.351 98.2375C102.204 98.2375 103.015 98.1962 103.785 98.1137C104.583 98.0037 105.311 97.8525 105.971 97.66ZM119.171 108.756V109.581C118.429 109.636 117.728 109.856 117.068 110.241C116.435 110.599 115.803 111.107 115.17 111.767L109.849 117.295L110.426 116.222L117.975 126.989C118.415 127.594 118.828 128.075 119.213 128.432C119.625 128.79 120.12 129.024 120.697 129.134V130C120.368 129.972 119.859 129.945 119.171 129.917C118.511 129.862 117.838 129.835 117.15 129.835C116.27 129.835 115.376 129.862 114.469 129.917C113.561 129.945 112.888 129.972 112.448 130V129.134C112.998 129.134 113.369 128.996 113.561 128.721C113.781 128.446 113.754 128.116 113.479 127.731L108.859 120.719C108.364 120.004 107.91 119.55 107.498 119.357C107.113 119.137 106.549 119.014 105.806 118.986V118.202C106.631 118.092 107.305 117.927 107.828 117.707C108.35 117.46 108.845 117.089 109.313 116.594L112.365 113.417C113.273 112.51 113.726 111.781 113.726 111.231C113.726 110.654 113.438 110.241 112.86 109.994C112.283 109.719 111.54 109.581 110.633 109.581V108.756C111.348 108.784 112.159 108.811 113.066 108.839C113.974 108.866 114.73 108.88 115.335 108.88C115.803 108.88 116.27 108.88 116.738 108.88C117.233 108.852 117.686 108.839 118.099 108.839C118.511 108.811 118.869 108.784 119.171 108.756ZM129.634 108.179C130.734 108.179 131.669 108.357 132.439 108.715C133.236 109.045 133.828 109.347 134.213 109.622C135.12 110.365 135.67 109.897 135.863 108.22H136.811C136.756 108.99 136.715 109.911 136.688 110.984C136.66 112.029 136.646 113.459 136.646 115.274H135.698C135.533 114.256 135.258 113.266 134.873 112.304C134.488 111.314 133.91 110.516 133.14 109.911C132.37 109.279 131.38 108.962 130.17 108.962C129.235 108.962 128.451 109.224 127.819 109.746C127.186 110.269 126.87 111.039 126.87 112.056C126.87 112.881 127.118 113.596 127.613 114.201C128.108 114.779 128.754 115.329 129.551 115.851C130.349 116.374 131.201 116.937 132.109 117.542C133.154 118.202 134.089 118.876 134.914 119.564C135.739 120.251 136.399 121.007 136.894 121.832C137.389 122.657 137.636 123.62 137.636 124.72C137.636 125.985 137.293 127.057 136.605 127.937C135.945 128.79 135.065 129.45 133.965 129.917C132.893 130.358 131.71 130.578 130.418 130.578C129.785 130.578 129.18 130.523 128.603 130.413C128.053 130.303 127.53 130.151 127.035 129.959C126.76 129.794 126.471 129.629 126.169 129.464C125.894 129.271 125.605 129.079 125.303 128.886C125.028 128.694 124.78 128.721 124.56 128.969C124.368 129.189 124.216 129.629 124.106 130.289H123.158C123.213 129.409 123.254 128.336 123.281 127.071C123.309 125.806 123.323 124.129 123.323 122.039H124.271C124.464 123.579 124.739 124.926 125.096 126.081C125.481 127.209 126.045 128.102 126.788 128.762C127.558 129.395 128.616 129.711 129.964 129.711C130.486 129.711 131.023 129.601 131.573 129.381C132.123 129.134 132.576 128.735 132.934 128.185C133.291 127.635 133.47 126.906 133.47 125.999C133.47 124.789 133.03 123.799 132.15 123.029C131.298 122.259 130.225 121.434 128.933 120.554C127.943 119.894 127.021 119.247 126.169 118.615C125.316 117.982 124.629 117.267 124.106 116.47C123.584 115.645 123.323 114.669 123.323 113.541C123.323 112.304 123.611 111.286 124.189 110.489C124.766 109.691 125.536 109.114 126.499 108.756C127.489 108.371 128.534 108.179 129.634 108.179ZM162.522 100.96C163.567 100.96 164.42 101.07 165.08 101.29C165.767 101.51 166.345 101.799 166.812 102.156C167.17 102.404 167.472 102.692 167.72 103.022C167.967 103.352 168.16 103.696 168.297 104.054C168.435 104.384 168.503 104.727 168.503 105.085C168.503 105.8 168.242 106.364 167.72 106.776C167.225 107.189 166.661 107.395 166.028 107.395C165.423 107.395 164.887 107.216 164.42 106.859C163.952 106.474 163.718 105.924 163.718 105.209C163.718 104.604 163.925 104.081 164.337 103.641C164.777 103.174 165.327 102.899 165.987 102.816C165.85 102.486 165.506 102.211 164.956 101.991C164.406 101.744 163.732 101.62 162.935 101.62C161.532 101.62 160.363 102.046 159.428 102.899C158.521 103.751 158.067 104.989 158.067 106.611C158.067 107.354 158.205 108.124 158.48 108.921C158.755 109.691 159.291 110.461 160.088 111.231C160.556 111.149 161.023 111.08 161.491 111.025C161.986 110.97 162.357 110.942 162.605 110.942C163.1 110.942 163.485 111.039 163.76 111.231C164.062 111.396 164.213 111.63 164.213 111.932C164.213 112.18 164.103 112.386 163.883 112.551C163.691 112.689 163.416 112.757 163.058 112.757C162.563 112.757 162.027 112.634 161.45 112.386C160.9 112.139 160.46 111.946 160.13 111.809C158.59 112.304 157.338 113.087 156.376 114.16C155.441 115.205 154.973 116.662 154.973 118.532C154.973 120.43 155.468 122.025 156.458 123.317C157.448 124.61 158.782 125.6 160.46 126.287C162.165 126.947 164.076 127.278 166.193 127.278C167.651 127.278 169.026 127.112 170.318 126.782C171.638 126.452 172.807 125.957 173.825 125.297C174.87 124.637 175.681 123.854 176.258 122.946C176.863 122.039 177.166 120.994 177.166 119.811C177.166 119.289 177.056 118.642 176.836 117.873C176.643 117.075 176.217 116.305 175.557 115.562C174.925 114.792 173.935 114.187 172.587 113.747L173.041 113.335C174.938 113.912 176.3 114.875 177.125 116.222C177.977 117.542 178.403 119.027 178.403 120.677C178.403 122.382 177.881 123.991 176.836 125.504C175.818 127.016 174.347 128.24 172.422 129.175C170.497 130.11 168.187 130.578 165.492 130.578C163.622 130.578 161.848 130.344 160.171 129.876C158.521 129.409 157.063 128.735 155.798 127.855C154.561 126.947 153.585 125.861 152.87 124.596C152.155 123.331 151.797 121.901 151.797 120.306C151.797 118.821 152.086 117.542 152.663 116.47C153.241 115.397 153.97 114.517 154.85 113.83C155.73 113.142 156.596 112.62 157.448 112.262C158.328 111.877 159.03 111.616 159.552 111.479C158.645 111.066 157.875 110.585 157.242 110.035C156.61 109.485 156.128 108.88 155.798 108.22C155.468 107.56 155.303 106.872 155.303 106.157C155.303 105.47 155.468 104.81 155.798 104.177C156.128 103.545 156.596 102.995 157.201 102.527C157.833 102.032 158.59 101.647 159.47 101.372C160.35 101.097 161.367 100.96 162.522 100.96ZM177.743 100.217C179.503 100.217 180.961 100.712 182.116 101.702C183.298 102.692 183.89 104.067 183.89 105.827C183.89 106.872 183.683 107.78 183.271 108.55C182.858 109.32 182.295 109.994 181.58 110.571C180.865 111.121 180.04 111.575 179.105 111.932C178.5 112.207 177.73 112.51 176.795 112.84C175.86 113.142 174.856 113.459 173.783 113.789C172.738 114.091 171.735 114.407 170.772 114.737C169.81 115.04 169.026 115.301 168.421 115.521C167.183 115.906 166.166 116.387 165.368 116.965C164.571 117.542 164.172 118.285 164.172 119.192C164.172 119.88 164.378 120.471 164.791 120.966C165.231 121.461 165.753 121.846 166.358 122.121C166.963 122.369 167.541 122.492 168.091 122.492C168.338 122.492 168.627 122.465 168.957 122.41C169.315 122.327 169.631 122.231 169.906 122.121C170.181 121.984 170.346 121.832 170.401 121.667C169.933 121.557 169.493 121.337 169.081 121.007C168.668 120.65 168.462 120.127 168.462 119.44C168.462 118.752 168.696 118.216 169.163 117.831C169.658 117.419 170.25 117.212 170.937 117.212C171.652 117.212 172.216 117.432 172.628 117.873C173.068 118.285 173.288 118.835 173.288 119.522C173.288 120.32 173.027 120.994 172.505 121.544C172.01 122.066 171.363 122.465 170.566 122.74C169.796 122.987 169.012 123.111 168.215 123.111C167.39 123.111 166.565 122.946 165.74 122.616C164.915 122.259 164.227 121.722 163.677 121.007C163.155 120.292 162.893 119.357 162.893 118.202C162.893 117.157 163.141 116.236 163.636 115.439C164.131 114.641 164.846 113.954 165.781 113.376C166.743 112.771 167.912 112.276 169.287 111.891C170.057 111.616 170.978 111.341 172.051 111.066C173.151 110.764 174.278 110.434 175.433 110.076C176.588 109.719 177.633 109.334 178.568 108.921C180.081 108.316 181.14 107.697 181.745 107.065C182.35 106.405 182.652 105.704 182.652 104.961C182.652 104.164 182.432 103.462 181.992 102.857C181.552 102.252 180.961 101.771 180.218 101.414C179.503 101.056 178.733 100.877 177.908 100.877C177.578 100.877 177.303 100.905 177.083 100.96C176.863 100.987 176.726 101.07 176.671 101.207C177.111 101.4 177.441 101.689 177.661 102.074C177.881 102.459 177.991 102.844 177.991 103.229C177.991 103.861 177.743 104.384 177.248 104.796C176.753 105.181 176.162 105.374 175.475 105.374C174.87 105.374 174.32 105.195 173.825 104.837C173.33 104.452 173.082 103.902 173.082 103.187C173.082 102.472 173.316 101.895 173.783 101.455C174.251 101.015 174.842 100.699 175.557 100.506C176.3 100.314 177.028 100.217 177.743 100.217ZM217.332 100.795C217.222 101.867 217.14 102.912 217.085 103.93C217.057 104.947 217.043 105.731 217.043 106.281C217.043 106.914 217.057 107.519 217.085 108.096C217.112 108.674 217.14 109.182 217.167 109.622H216.218C215.998 107.642 215.696 106.089 215.311 104.961C214.926 103.806 214.307 102.981 213.455 102.486C212.63 101.991 211.392 101.744 209.742 101.744H207.391C206.483 101.744 205.796 101.826 205.328 101.991C204.861 102.129 204.545 102.431 204.38 102.899C204.215 103.366 204.132 104.095 204.132 105.085V125.586C204.132 126.576 204.228 127.332 204.421 127.855C204.641 128.35 205.053 128.68 205.658 128.845C206.291 129.01 207.185 129.12 208.34 129.175V130C207.597 129.945 206.648 129.917 205.493 129.917C204.366 129.89 203.197 129.876 201.987 129.876C200.915 129.876 199.883 129.89 198.893 129.917C197.931 129.917 197.12 129.945 196.46 130V129.175C197.395 129.12 198.096 129.01 198.563 128.845C199.031 128.68 199.347 128.35 199.512 127.855C199.677 127.36 199.76 126.617 199.76 125.627V105.167C199.76 104.15 199.677 103.407 199.512 102.94C199.347 102.445 199.031 102.115 198.563 101.95C198.096 101.757 197.395 101.647 196.46 101.62V100.795C197.505 100.822 198.605 100.85 199.76 100.877C200.915 100.877 202.056 100.891 203.183 100.919C204.311 100.919 205.356 100.919 206.318 100.919C207.308 100.919 208.106 100.919 208.711 100.919C209.976 100.919 211.406 100.919 213.001 100.919C214.623 100.891 216.067 100.85 217.332 100.795ZM211.021 115.274C211.021 115.274 211.021 115.411 211.021 115.686C211.021 115.961 211.021 116.099 211.021 116.099H202.895C202.895 116.099 202.895 115.961 202.895 115.686C202.895 115.411 202.895 115.274 202.895 115.274H211.021ZM211.846 109.829C211.736 111.396 211.681 112.592 211.681 113.417C211.708 114.242 211.722 114.999 211.722 115.686C211.722 116.374 211.736 117.13 211.763 117.955C211.791 118.78 211.86 119.976 211.97 121.544H211.021C210.911 120.636 210.746 119.77 210.526 118.945C210.333 118.092 209.962 117.405 209.412 116.882C208.89 116.36 208.037 116.099 206.855 116.099V115.274C207.735 115.274 208.422 115.095 208.917 114.737C209.412 114.352 209.783 113.871 210.031 113.294C210.306 112.716 210.498 112.125 210.608 111.52C210.718 110.887 210.815 110.324 210.897 109.829H211.846ZM224.863 130.289C223.736 130.289 222.759 130.069 221.934 129.629C221.109 129.189 220.477 128.584 220.037 127.814C219.624 127.044 219.418 126.164 219.418 125.174C219.418 123.964 219.693 122.974 220.243 122.204C220.821 121.434 221.536 120.815 222.388 120.347C223.268 119.88 224.189 119.495 225.152 119.192C226.142 118.89 227.077 118.601 227.957 118.326C228.837 118.024 229.552 117.68 230.102 117.295C230.652 116.882 230.927 116.36 230.927 115.727V113.046C230.927 111.974 230.762 111.149 230.432 110.571C230.129 109.966 229.689 109.554 229.112 109.334C228.562 109.114 227.929 109.004 227.214 109.004C226.554 109.004 225.853 109.1 225.111 109.292C224.368 109.457 223.777 109.815 223.337 110.365C223.914 110.502 224.396 110.805 224.781 111.272C225.166 111.74 225.358 112.317 225.358 113.005C225.358 113.747 225.111 114.339 224.616 114.779C224.148 115.191 223.557 115.397 222.842 115.397C222.017 115.397 221.398 115.136 220.986 114.614C220.601 114.091 220.408 113.486 220.408 112.799C220.408 112.056 220.587 111.465 220.944 111.025C221.302 110.557 221.769 110.131 222.347 109.746C223.007 109.306 223.846 108.935 224.863 108.632C225.908 108.33 227.063 108.179 228.328 108.179C229.483 108.179 230.473 108.316 231.298 108.591C232.151 108.839 232.852 109.224 233.402 109.746C234.089 110.406 234.543 111.204 234.763 112.139C234.983 113.074 235.093 114.215 235.093 115.562V126.989C235.093 127.676 235.189 128.171 235.382 128.474C235.574 128.749 235.877 128.886 236.289 128.886C236.592 128.886 236.867 128.817 237.114 128.68C237.389 128.542 237.706 128.336 238.063 128.061L238.517 128.762C237.939 129.202 237.362 129.574 236.784 129.876C236.234 130.151 235.506 130.289 234.598 130.289C233.773 130.289 233.086 130.151 232.536 129.876C232.013 129.601 231.614 129.202 231.339 128.68C231.092 128.13 230.968 127.47 230.968 126.7C230.226 127.882 229.346 128.776 228.328 129.381C227.338 129.986 226.183 130.289 224.863 130.289ZM226.637 128.432C227.489 128.432 228.273 128.199 228.988 127.731C229.703 127.264 230.349 126.549 230.927 125.586V117.419C230.624 117.886 230.171 118.285 229.566 118.615C228.988 118.917 228.342 119.234 227.627 119.564C226.939 119.894 226.279 120.265 225.647 120.677C225.014 121.09 224.492 121.64 224.079 122.327C223.694 122.987 223.502 123.854 223.502 124.926C223.502 125.999 223.777 126.851 224.327 127.484C224.904 128.116 225.674 128.432 226.637 128.432ZM247.301 108.179C248.401 108.179 249.336 108.357 250.106 108.715C250.904 109.045 251.495 109.347 251.88 109.622C252.787 110.365 253.337 109.897 253.53 108.22H254.479C254.424 108.99 254.382 109.911 254.355 110.984C254.327 112.029 254.314 113.459 254.314 115.274H253.365C253.2 114.256 252.925 113.266 252.54 112.304C252.155 111.314 251.577 110.516 250.807 109.911C250.037 109.279 249.047 108.962 247.837 108.962C246.902 108.962 246.119 109.224 245.486 109.746C244.854 110.269 244.537 111.039 244.537 112.056C244.537 112.881 244.785 113.596 245.28 114.201C245.775 114.779 246.421 115.329 247.219 115.851C248.016 116.374 248.869 116.937 249.776 117.542C250.821 118.202 251.756 118.876 252.581 119.564C253.406 120.251 254.066 121.007 254.561 121.832C255.056 122.657 255.304 123.62 255.304 124.72C255.304 125.985 254.96 127.057 254.272 127.937C253.612 128.79 252.732 129.45 251.632 129.917C250.56 130.358 249.377 130.578 248.085 130.578C247.452 130.578 246.847 130.523 246.27 130.413C245.72 130.303 245.197 130.151 244.702 129.959C244.427 129.794 244.139 129.629 243.836 129.464C243.561 129.271 243.272 129.079 242.97 128.886C242.695 128.694 242.447 128.721 242.227 128.969C242.035 129.189 241.884 129.629 241.774 130.289H240.825C240.88 129.409 240.921 128.336 240.949 127.071C240.976 125.806 240.99 124.129 240.99 122.039H241.939C242.131 123.579 242.406 124.926 242.764 126.081C243.149 127.209 243.712 128.102 244.455 128.762C245.225 129.395 246.284 129.711 247.631 129.711C248.154 129.711 248.69 129.601 249.24 129.381C249.79 129.134 250.244 128.735 250.601 128.185C250.959 127.635 251.137 126.906 251.137 125.999C251.137 124.789 250.697 123.799 249.817 123.029C248.965 122.259 247.892 121.434 246.6 120.554C245.61 119.894 244.689 119.247 243.836 118.615C242.984 117.982 242.296 117.267 241.774 116.47C241.251 115.645 240.99 114.669 240.99 113.541C240.99 112.304 241.279 111.286 241.856 110.489C242.434 109.691 243.204 109.114 244.166 108.756C245.156 108.371 246.201 108.179 247.301 108.179ZM265.17 97.7012V112.881C265.885 111.121 266.862 109.897 268.099 109.21C269.364 108.522 270.712 108.179 272.142 108.179C273.214 108.179 274.094 108.316 274.782 108.591C275.497 108.866 276.088 109.251 276.555 109.746C277.05 110.296 277.408 110.984 277.628 111.809C277.848 112.634 277.958 113.747 277.958 115.15V126.164C277.958 127.319 278.192 128.102 278.659 128.515C279.127 128.927 279.897 129.134 280.969 129.134V130C280.502 129.972 279.773 129.945 278.783 129.917C277.82 129.862 276.872 129.835 275.937 129.835C275.002 129.835 274.08 129.862 273.173 129.917C272.293 129.945 271.633 129.972 271.193 130V129.134C272.128 129.134 272.788 128.927 273.173 128.515C273.585 128.102 273.792 127.319 273.792 126.164V114.077C273.792 113.252 273.723 112.51 273.585 111.85C273.448 111.162 273.145 110.612 272.678 110.2C272.238 109.787 271.55 109.581 270.615 109.581C269.57 109.581 268.635 109.884 267.81 110.489C266.985 111.066 266.339 111.877 265.872 112.922C265.404 113.967 265.17 115.164 265.17 116.511V126.164C265.17 127.319 265.363 128.102 265.748 128.515C266.16 128.927 266.848 129.134 267.81 129.134V130C267.343 129.972 266.669 129.945 265.789 129.917C264.909 129.862 264.002 129.835 263.067 129.835C262.132 129.835 261.169 129.862 260.179 129.917C259.189 129.945 258.46 129.972 257.993 130V129.134C259.093 129.134 259.863 128.927 260.303 128.515C260.77 128.102 261.004 127.319 261.004 126.164V102.651C261.004 101.414 260.784 100.506 260.344 99.9287C259.932 99.3237 259.148 99.0212 257.993 99.0212V98.155C258.873 98.2375 259.725 98.2787 260.55 98.2787C261.403 98.2787 262.214 98.2375 262.984 98.155C263.782 98.045 264.51 97.8937 265.17 97.7012ZM287.561 98.3612C288.358 98.3612 289.032 98.6362 289.582 99.1862C290.132 99.7087 290.407 100.355 290.407 101.125C290.407 101.895 290.132 102.541 289.582 103.064C289.032 103.586 288.358 103.847 287.561 103.847C286.763 103.847 286.09 103.586 285.54 103.064C284.99 102.541 284.715 101.895 284.715 101.125C284.715 100.355 284.99 99.7087 285.54 99.1862C286.09 98.6362 286.763 98.3612 287.561 98.3612ZM289.912 108.302V126.164C289.912 127.319 290.146 128.102 290.613 128.515C291.081 128.927 291.865 129.134 292.965 129.134V130C292.497 129.972 291.768 129.945 290.778 129.917C289.816 129.862 288.84 129.835 287.85 129.835C286.915 129.835 285.952 129.862 284.962 129.917C283.972 129.945 283.23 129.972 282.735 130V129.134C283.835 129.134 284.618 128.927 285.086 128.515C285.553 128.102 285.787 127.319 285.787 126.164V113.252C285.787 112.015 285.567 111.107 285.127 110.53C284.715 109.925 283.917 109.622 282.735 109.622V108.756C283.615 108.839 284.467 108.88 285.292 108.88C286.172 108.88 286.997 108.839 287.767 108.756C288.565 108.646 289.28 108.495 289.912 108.302ZM305.211 108.179C306.998 108.179 308.607 108.564 310.037 109.334C311.467 110.076 312.594 111.272 313.419 112.922C314.272 114.572 314.698 116.731 314.698 119.399C314.698 122.039 314.272 124.184 313.419 125.834C312.594 127.456 311.467 128.652 310.037 129.422C308.607 130.193 306.998 130.578 305.211 130.578C303.423 130.578 301.801 130.193 300.343 129.422C298.913 128.652 297.772 127.456 296.919 125.834C296.094 124.184 295.682 122.039 295.682 119.399C295.682 116.731 296.094 114.572 296.919 112.922C297.772 111.272 298.913 110.076 300.343 109.334C301.801 108.564 303.423 108.179 305.211 108.179ZM305.211 109.004C303.726 109.004 302.502 109.815 301.539 111.437C300.604 113.06 300.137 115.714 300.137 119.399C300.137 123.084 300.604 125.737 301.539 127.36C302.502 128.955 303.726 129.752 305.211 129.752C306.668 129.752 307.878 128.955 308.841 127.36C309.803 125.737 310.284 123.084 310.284 119.399C310.284 115.714 309.803 113.06 308.841 111.437C307.878 109.815 306.668 109.004 305.211 109.004ZM331.849 108.179C332.922 108.179 333.802 108.316 334.489 108.591C335.204 108.866 335.795 109.251 336.263 109.746C336.758 110.296 337.115 110.984 337.335 111.809C337.555 112.634 337.665 113.747 337.665 115.15V126.164C337.665 127.319 337.899 128.102 338.367 128.515C338.834 128.927 339.618 129.134 340.718 129.134V130C340.223 129.972 339.48 129.945 338.49 129.917C337.528 129.862 336.579 129.835 335.644 129.835C334.709 129.835 333.788 129.862 332.88 129.917C332 129.945 331.34 129.972 330.9 130V129.134C331.863 129.134 332.537 128.927 332.922 128.515C333.334 128.102 333.54 127.319 333.54 126.164V114.077C333.54 113.252 333.472 112.51 333.334 111.85C333.197 111.162 332.894 110.612 332.427 110.2C331.959 109.787 331.258 109.581 330.323 109.581C329.25 109.581 328.302 109.884 327.477 110.489C326.679 111.094 326.047 111.932 325.579 113.005C325.112 114.05 324.878 115.232 324.878 116.552V126.164C324.878 127.319 325.07 128.102 325.455 128.515C325.868 128.927 326.555 129.134 327.518 129.134V130C327.078 129.972 326.404 129.945 325.497 129.917C324.617 129.862 323.723 129.835 322.815 129.835C321.88 129.835 320.918 129.862 319.928 129.917C318.938 129.945 318.195 129.972 317.7 130V129.134C318.8 129.134 319.584 128.927 320.052 128.515C320.519 128.102 320.753 127.319 320.753 126.164V113.252C320.753 112.015 320.533 111.107 320.093 110.53C319.68 109.925 318.883 109.622 317.7 109.622V108.756C318.58 108.839 319.433 108.88 320.258 108.88C321.138 108.88 321.963 108.839 322.733 108.756C323.53 108.646 324.245 108.495 324.878 108.302V112.922C325.593 111.135 326.583 109.897 327.848 109.21C329.113 108.522 330.447 108.179 331.849 108.179Z" fill="black"/>
<path d="M86.5839 47.0434C86.9749 46.6807 87.4175 46.452 87.9116 46.3573C88.3967 46.2529 88.8772 46.2709 89.3531 46.4114C89.8388 46.5428 90.263 46.804 90.6257 47.195C90.9794 47.5763 91.2081 48.0188 91.3118 48.5228C91.4163 49.0079 91.3982 49.4884 91.2577 49.9643C91.1172 50.4402 90.8515 50.8595 90.4605 51.2222C90.0793 51.5758 89.6412 51.8094 89.1463 51.9229C88.6613 52.0274 88.1808 52.0094 87.7049 51.8689C87.2199 51.7186 86.8006 51.4528 86.4469 51.0716C86.0842 50.6806 85.8506 50.2426 85.7462 49.7575C85.6417 49.2724 85.6597 48.7919 85.8002 48.316C85.9415 47.8212 86.2027 47.3971 86.5839 47.0434Z" fill="black"/>
<path d="M105.093 30.0849C105.549 29.8079 105.981 29.6465 106.39 29.6006C106.799 29.5548 107.116 29.5495 107.34 29.5848C107.903 29.6639 108.006 29.3203 107.65 28.554L108.043 28.3151C108.214 28.6479 108.429 29.04 108.688 29.4913C108.94 29.9311 109.291 30.5214 109.741 31.2619L109.348 31.5009C109.023 31.1209 108.654 30.7834 108.241 30.4886C107.839 30.1868 107.402 30.0075 106.931 29.9508C106.452 29.8827 105.957 30.0045 105.444 30.3161C105.046 30.5585 104.779 30.8768 104.644 31.2709C104.513 31.6467 104.58 32.051 104.843 32.484C105.051 32.8258 105.333 33.0597 105.691 33.1856C106.041 33.3002 106.448 33.3653 106.91 33.3809C107.365 33.3852 107.862 33.3949 108.402 33.41C109.001 33.4203 109.564 33.4604 110.09 33.5306C110.616 33.6007 111.086 33.7443 111.499 33.9614C111.923 34.1716 112.277 34.5103 112.561 34.9774C112.88 35.5015 113.01 36.0233 112.951 36.5427C112.892 37.0621 112.696 37.548 112.363 38.0004C112.04 38.4459 111.617 38.828 111.093 39.1466C110.843 39.2989 110.59 39.4216 110.334 39.5146C110.097 39.612 109.851 39.6831 109.598 39.7281C109.449 39.7404 109.288 39.7447 109.114 39.7412C108.952 39.7307 108.786 39.7145 108.617 39.6926C108.447 39.6707 108.348 39.7387 108.319 39.8967C108.284 40.0432 108.329 40.2728 108.457 40.5853L108.064 40.8243C107.865 40.4458 107.612 39.9911 107.305 39.4601C106.998 38.9291 106.581 38.2306 106.055 37.3647L106.448 37.1258C106.915 37.7153 107.369 38.2043 107.808 38.5928C108.247 38.9813 108.709 39.2153 109.194 39.2948C109.672 39.3629 110.196 39.2238 110.766 38.8775C110.994 38.739 111.19 38.5492 111.356 38.3081C111.533 38.0601 111.628 37.768 111.642 37.4318C111.656 37.0956 111.542 36.7281 111.3 36.3293C110.995 35.828 110.564 35.5287 110.005 35.4313C109.446 35.3339 108.781 35.2783 108.008 35.2645C107.438 35.2518 106.892 35.2253 106.368 35.1849C105.855 35.1375 105.385 35.0179 104.956 34.826C104.539 34.6272 104.188 34.2943 103.904 33.8271C103.592 33.3144 103.453 32.8293 103.487 32.3718C103.526 31.8959 103.694 31.4662 103.991 31.0826C104.281 30.6876 104.649 30.355 105.093 30.0849Z" fill="black"/>
<path d="M114.935 19.4071C115.249 19.259 115.574 19.2455 115.911 19.3664C116.249 19.4873 116.491 19.7045 116.639 20.0179C116.787 20.3314 116.801 20.6568 116.68 20.994C116.559 21.3313 116.342 21.5739 116.028 21.7219C115.715 21.87 115.39 21.8835 115.052 21.7626C114.715 21.6417 114.473 21.4245 114.324 21.1111C114.176 20.7976 114.163 20.4722 114.284 20.135C114.405 19.7977 114.622 19.5551 114.935 19.4071ZM117.917 23.2853L121.615 31.1161C121.854 31.6225 122.119 31.9177 122.409 32.0018C122.711 32.0801 123.11 32.0026 123.604 31.7692L123.783 32.149C123.573 32.2337 123.254 32.3697 122.826 32.5569C122.405 32.7263 121.983 32.9107 121.561 33.11C121.151 33.3035 120.741 33.512 120.33 33.7354C119.914 33.9467 119.606 34.1068 119.407 34.2157L119.227 33.8359C119.722 33.6024 120.029 33.3469 120.148 33.0693C120.28 32.7859 120.226 32.3911 119.987 31.8847L117.314 26.2241C117.058 25.6816 116.773 25.3292 116.461 25.1671C116.143 24.993 115.719 25.0312 115.188 25.2817L115.009 24.9019C115.412 24.7559 115.794 24.5975 116.156 24.4267C116.505 24.2615 116.828 24.0869 117.125 23.9027C117.427 23.7007 117.691 23.4949 117.917 23.2853Z" fill="black"/>
<path d="M132.108 17.6535C132.588 17.4924 133.007 17.4221 133.366 17.4425C133.737 17.4587 134.068 17.5446 134.359 17.7001C134.684 17.8724 134.961 18.1312 135.189 18.4765C135.417 18.8218 135.64 19.3169 135.856 19.9616L137.553 25.0246C137.731 25.5555 137.96 25.8798 138.238 25.9973C138.529 26.1106 138.934 26.0804 139.452 25.9066L139.586 26.3048C139.367 26.3642 139.034 26.4618 138.587 26.5975C138.136 26.7206 137.702 26.8521 137.285 26.992C136.868 27.1319 136.461 27.2823 136.065 27.4432C135.677 27.5872 135.385 27.6995 135.187 27.7799L135.053 27.3817C135.508 27.2291 135.799 27.0262 135.925 26.773C136.051 26.5198 136.025 26.1277 135.847 25.5968L134.009 20.1167C133.878 19.7248 133.725 19.3751 133.552 19.0676C133.379 18.7601 133.144 18.5434 132.849 18.4174C132.566 18.2872 132.197 18.2984 131.742 18.451C131.211 18.629 130.794 18.9376 130.491 19.3766C130.201 19.8114 130.032 20.3325 129.982 20.9397C129.941 21.5301 130.028 22.1476 130.245 22.7923L131.656 27.002C131.834 27.5329 132.05 27.8614 132.303 27.9875C132.556 28.1135 132.91 28.1002 133.365 27.9476L133.499 28.3458C133.292 28.401 132.985 28.4901 132.576 28.6131C132.176 28.7192 131.767 28.8422 131.35 28.9821C130.933 29.122 130.507 29.2788 130.073 29.4524C129.635 29.6134 129.31 29.7363 129.1 29.821L128.966 29.4228C129.484 29.249 129.819 29.0312 129.971 28.7695C130.135 28.5036 130.128 28.1052 129.95 27.5742L127.959 21.639C127.769 21.0701 127.528 20.6869 127.236 20.4892C126.941 20.2789 126.515 20.267 125.959 20.4535L125.825 20.0553C126.242 19.9576 126.641 19.8452 127.02 19.718C127.387 19.5951 127.728 19.4595 128.044 19.3114C128.368 19.1464 128.655 18.973 128.903 18.7913L129.653 21.0288C129.694 20.059 129.95 19.3122 130.421 18.7886C130.901 18.248 131.463 17.8697 132.108 17.6535Z" fill="black"/>
<path d="M147.882 13.6499C148.302 13.5697 148.718 13.5444 149.13 13.574C149.543 13.6036 149.927 13.693 150.281 13.8424C150.62 13.9812 150.893 14.1666 151.1 14.3984C151.305 14.6171 151.436 14.8771 151.494 15.1783C151.562 15.5319 151.516 15.8257 151.357 16.0597C151.196 16.2807 150.965 16.4199 150.663 16.4776C150.375 16.5327 150.104 16.4965 149.849 16.3688C149.606 16.2387 149.455 16.0164 149.395 15.7022C149.337 15.401 149.37 15.1436 149.492 14.9302C149.627 14.7143 149.801 14.5589 150.013 14.4639C149.837 14.2532 149.564 14.1019 149.193 14.0099C148.836 13.9154 148.467 13.9045 148.088 13.9772C147.76 14.0398 147.448 14.181 147.151 14.4008C146.853 14.6206 146.602 14.9402 146.397 15.3595C146.19 15.7657 146.061 16.2994 146.011 16.9606C145.959 17.6086 146.022 18.3976 146.2 19.3274C146.42 20.4798 146.726 21.3714 147.119 22.0023C147.511 22.6331 147.945 23.0591 148.422 23.2801C148.909 23.4855 149.408 23.5393 149.919 23.4416C150.26 23.3764 150.594 23.2446 150.923 23.0459C151.251 22.8473 151.545 22.5739 151.804 22.2256C152.061 21.8643 152.253 21.4135 152.38 20.8733L152.78 20.9393C152.729 21.3835 152.594 21.8504 152.376 22.3402C152.155 22.8169 151.828 23.2391 151.397 23.6069C150.965 23.9746 150.395 24.2261 149.688 24.3615C148.876 24.5168 148.102 24.4476 147.368 24.1539C146.633 23.8601 145.995 23.3645 145.454 22.667C144.924 21.954 144.556 21.0605 144.351 19.9867C144.145 18.9128 144.154 17.9336 144.379 17.049C144.614 16.1488 145.035 15.4031 145.641 14.8119C146.245 14.2076 146.992 13.8203 147.882 13.6499Z" fill="black"/>
<path d="M163.589 11.7272C164.761 11.6582 165.693 11.9639 166.388 12.6442C167.095 13.3105 167.493 14.3956 167.581 15.8997L160.534 16.3147L160.491 15.9366L165.642 15.6332C165.631 14.9794 165.542 14.3836 165.377 13.8457C165.211 13.2945 164.972 12.8612 164.659 12.5457C164.36 12.2294 163.984 12.0846 163.532 12.1112C162.919 12.1473 162.392 12.4855 161.949 13.126C161.519 13.7657 161.297 14.7538 161.282 16.0904L161.346 16.1667C161.331 16.3679 161.324 16.5887 161.325 16.8291C161.326 17.0695 161.333 17.3094 161.348 17.549C161.401 18.4541 161.593 19.2241 161.924 19.8591C162.256 20.4941 162.664 20.9709 163.151 21.2895C163.649 21.594 164.152 21.7314 164.657 21.7016C165.057 21.6781 165.433 21.5959 165.785 21.4549C166.136 21.3006 166.457 21.0681 166.746 20.7572C167.034 20.4464 167.278 20.038 167.475 19.5322L167.884 19.6684C167.763 20.1163 167.548 20.5563 167.24 20.9886C166.932 21.4208 166.532 21.7849 166.042 22.0809C165.551 22.3635 164.973 22.5245 164.308 22.5637C163.349 22.6201 162.511 22.4491 161.793 22.0506C161.088 21.6514 160.527 21.0767 160.109 20.3266C159.703 19.5625 159.471 18.6746 159.411 17.6631C159.342 16.4918 159.469 15.4759 159.792 14.6154C160.115 13.7416 160.602 13.0584 161.254 12.5659C161.906 12.06 162.684 11.7805 163.589 11.7272Z" fill="black"/>
<path d="M190.55 13.0116C191.459 13.1541 192.143 13.4839 192.602 14.0012C193.076 14.5074 193.25 15.1622 193.124 15.9658C193.041 16.4927 192.838 16.9736 192.513 17.4086C192.204 17.8325 191.817 18.2308 191.354 18.6035C190.893 18.9631 190.406 19.312 189.894 19.6502C189.384 19.9751 188.888 20.3022 188.404 20.6313C187.923 20.9472 187.506 21.2801 187.155 21.6298L191.166 22.2585C191.706 22.3431 192.06 22.3244 192.227 22.2022C192.397 22.0668 192.537 21.8188 192.647 21.4583L192.983 21.5109C192.874 22.2091 192.796 22.7502 192.749 23.1342C192.705 23.5051 192.672 23.8441 192.651 24.1512C192.536 24.1063 192.322 24.0525 192.008 23.9897C191.694 23.927 191.334 23.8571 190.927 23.7799C190.519 23.7159 190.117 23.6529 189.722 23.591L185.098 22.8664L185.151 22.5305C185.614 22.1577 186.161 21.771 186.79 21.3703C187.422 20.9565 188.04 20.5 188.645 20.0009C189.265 19.4907 189.799 18.92 190.249 18.2887C190.714 17.6463 191.011 16.9168 191.139 16.1001C191.257 15.3492 191.163 14.7813 190.859 14.3962C190.571 14.0001 190.117 13.7535 189.498 13.6564C188.971 13.5739 188.458 13.6555 187.961 13.9015C187.466 14.1343 186.998 14.5334 186.559 15.0988L186.27 14.8714C186.534 14.4809 186.86 14.127 187.247 13.8098C187.649 13.4814 188.119 13.238 188.657 13.0793C189.208 12.9227 189.839 12.9002 190.55 13.0116Z" fill="black"/>
<path d="M207.338 16.8117C208.245 17.0824 208.981 17.5314 209.545 18.1589C210.125 18.7774 210.501 19.5226 210.673 20.3946C210.844 21.2666 210.777 22.2137 210.472 23.2359C210.167 24.258 209.688 25.117 209.035 25.8127C208.386 26.4957 207.627 26.9649 206.758 27.2204C205.905 27.4669 204.993 27.4453 204.022 27.1556C203.141 26.8926 202.41 26.4519 201.829 25.8334C201.252 25.2021 200.871 24.4486 200.687 23.5728C200.52 22.688 200.589 21.7345 200.894 20.7124C201.195 19.703 201.664 18.8549 202.3 18.1681C202.949 17.4852 203.708 17.0159 204.577 16.7604C205.447 16.505 206.367 16.5221 207.338 16.8117ZM207.062 17.1053C206.245 16.8613 205.438 17.0937 204.642 17.8025C203.859 18.515 203.235 19.6507 202.77 21.2095C202.427 22.3594 202.285 23.3257 202.343 24.1085C202.406 24.8785 202.613 25.4899 202.965 25.9428C203.33 26.3994 203.774 26.7059 204.298 26.8621C205.128 27.1099 205.935 26.8775 206.718 26.1649C207.505 25.4396 208.131 24.2975 208.596 22.7388C208.939 21.5888 209.079 20.6289 209.017 19.8589C208.958 19.0761 208.751 18.4647 208.395 18.0246C208.043 17.5718 207.599 17.2654 207.062 17.1053Z" fill="black"/>
<path d="M223.138 22.7735L219.719 30.512C219.46 31.0975 219.419 31.5531 219.596 31.879C219.773 32.2048 220.178 32.5079 220.813 32.788L220.643 33.1722C220.404 33.0522 220.05 32.8811 219.58 32.6588C219.127 32.4297 218.651 32.2047 218.151 31.9838C217.59 31.7359 217.041 31.5084 216.506 31.3011C215.989 31.087 215.587 30.9241 215.301 30.8124L215.471 30.4282C216.08 30.6976 216.599 30.8102 217.027 30.7659C217.46 30.7094 217.809 30.3823 218.073 29.7847L220.028 25.3574C220.287 24.772 220.417 24.3121 220.419 23.9777C220.421 23.6433 220.282 23.3634 220.003 23.1379C219.736 22.9179 219.328 22.6866 218.779 22.4442L218.957 22.0417C219.846 22.4052 220.612 22.6492 221.257 22.7736C221.902 22.8981 222.529 22.898 223.138 22.7735Z" fill="black"/>
<path d="M237.733 25.9732C238.248 26.2806 238.663 26.6522 238.977 27.0881C239.31 27.5195 239.496 27.9877 239.537 28.493C239.595 28.9936 239.471 29.5016 239.163 30.0169C238.747 30.7154 238.149 31.1971 237.37 31.4621C236.591 31.7271 235.704 31.8735 234.709 31.9012L234.715 31.5788C235.163 31.5045 235.562 31.3697 235.911 31.1744C236.272 30.9859 236.595 30.7439 236.88 30.4481C237.172 30.141 237.43 29.7984 237.656 29.4205C238.059 28.7449 238.24 28.1156 238.2 27.5326C238.178 26.945 237.897 26.4907 237.359 26.1697C236.901 25.8965 236.419 25.8337 235.911 25.9814C235.411 26.1176 234.99 26.472 234.648 27.0445C234.327 27.5827 234.17 28.1331 234.176 28.6956C234.189 29.2466 234.297 29.8077 234.499 30.3789C234.702 30.95 234.931 31.5291 235.186 32.1161C235.449 32.6916 235.674 33.2764 235.863 33.8705C236.059 34.4531 236.15 35.0428 236.135 35.6396C236.128 36.225 235.95 36.8097 235.602 37.3937C235.212 38.0465 234.71 38.5234 234.096 38.8245C233.482 39.1257 232.812 39.2463 232.087 39.1865C231.373 39.1335 230.656 38.8918 229.935 38.4615C229.328 38.0995 228.822 37.6584 228.418 37.1381C228.021 36.6063 227.789 36.033 227.721 35.418C227.66 34.7916 227.821 34.1578 228.203 33.5166C228.558 32.9211 229.008 32.4672 229.551 32.1548C230.113 31.8378 230.723 31.6349 231.381 31.5463C232.058 31.4531 232.746 31.4444 233.446 31.5204L233.44 31.8428C232.605 31.8884 231.897 32.1258 231.315 32.5549C230.74 32.9726 230.258 33.5078 229.868 34.1605C229.575 34.6529 229.361 35.1542 229.228 35.6645C229.112 36.1701 229.121 36.6492 229.255 37.1016C229.407 37.5494 229.73 37.9201 230.222 38.2138C230.795 38.5553 231.405 38.6635 232.054 38.5383C232.722 38.4085 233.274 37.9772 233.711 37.2443C234.046 36.6832 234.214 36.1157 234.214 35.5417C234.227 34.9746 234.144 34.3975 233.966 33.8102C233.796 33.2116 233.586 32.613 233.337 32.0146C233.1 31.4229 232.893 30.8335 232.715 30.2463C232.538 29.6591 232.453 29.0728 232.46 28.4874C232.48 27.9088 232.656 27.339 232.991 26.7779C233.312 26.2397 233.73 25.8522 234.243 25.6153C234.769 25.3853 235.331 25.3015 235.93 25.3639C236.548 25.4218 237.149 25.6249 237.733 25.9732Z" fill="black"/>
<path d="M255.439 46.9074C255.83 47.2702 256.091 47.6943 256.223 48.18C256.363 48.6559 256.381 49.1364 256.277 49.6215C256.182 50.1157 255.953 50.5582 255.591 50.9492C255.237 51.3305 254.813 51.5917 254.318 51.7329C253.842 51.8734 253.362 51.8914 252.877 51.787C252.392 51.6825 251.954 51.4489 251.563 51.0862C251.181 50.7326 250.916 50.3132 250.765 49.8283C250.625 49.3524 250.607 48.8719 250.711 48.3868C250.825 47.8919 251.058 47.4539 251.412 47.0727C251.775 46.6817 252.194 46.4159 252.67 46.2754C253.146 46.1349 253.626 46.1169 254.111 46.2213C254.615 46.3251 255.058 46.5538 255.439 46.9074Z" fill="black"/>
<path d="M255.416 177.957C255.025 178.319 254.583 178.548 254.088 178.643C253.603 178.747 253.123 178.729 252.647 178.589C252.161 178.457 251.737 178.196 251.374 177.805C251.021 177.424 250.792 176.981 250.688 176.477C250.584 175.992 250.602 175.512 250.742 175.036C250.883 174.56 251.149 174.141 251.54 173.778C251.921 173.424 252.359 173.191 252.854 173.077C253.339 172.973 253.819 172.991 254.295 173.131C254.78 173.281 255.199 173.547 255.553 173.928C255.916 174.319 256.149 174.757 256.254 175.243C256.358 175.728 256.34 176.208 256.2 176.684C256.059 177.179 255.797 177.603 255.416 177.957Z" fill="black"/>
<path d="M236.907 194.915C236.451 195.192 236.019 195.354 235.61 195.399C235.201 195.445 234.884 195.45 234.66 195.415C234.097 195.336 233.994 195.68 234.35 196.446L233.957 196.685C233.786 196.352 233.571 195.96 233.312 195.509C233.06 195.069 232.709 194.479 232.259 193.738L232.652 193.499C232.977 193.879 233.346 194.217 233.759 194.511C234.161 194.813 234.598 194.992 235.069 195.049C235.548 195.117 236.043 194.996 236.556 194.684C236.954 194.441 237.221 194.123 237.356 193.729C237.487 193.353 237.42 192.949 237.157 192.516C236.949 192.174 236.667 191.94 236.309 191.814C235.959 191.7 235.552 191.635 235.09 191.619C234.635 191.615 234.138 191.605 233.598 191.59C232.999 191.58 232.436 191.54 231.91 191.469C231.384 191.399 230.914 191.256 230.501 191.039C230.077 190.828 229.723 190.49 229.439 190.023C229.12 189.498 228.99 188.977 229.049 188.457C229.108 187.938 229.304 187.452 229.637 187C229.96 186.554 230.383 186.172 230.907 185.853C231.157 185.701 231.41 185.578 231.666 185.485C231.903 185.388 232.149 185.317 232.402 185.272C232.551 185.26 232.712 185.255 232.886 185.259C233.048 185.269 233.214 185.286 233.383 185.307C233.553 185.329 233.652 185.261 233.681 185.103C233.716 184.957 233.671 184.727 233.543 184.415L233.936 184.176C234.135 184.554 234.388 185.009 234.695 185.54C235.002 186.071 235.419 186.769 235.945 187.635L235.552 187.874C235.085 187.285 234.631 186.796 234.192 186.407C233.753 186.019 233.291 185.785 232.806 185.705C232.328 185.637 231.804 185.776 231.234 186.123C231.006 186.261 230.81 186.451 230.644 186.692C230.467 186.94 230.372 187.232 230.358 187.568C230.344 187.904 230.458 188.272 230.7 188.671C231.005 189.172 231.436 189.471 231.995 189.569C232.554 189.666 233.219 189.722 233.992 189.735C234.562 189.748 235.108 189.775 235.632 189.815C236.145 189.862 236.615 189.982 237.044 190.174C237.461 190.373 237.812 190.706 238.096 191.173C238.408 191.686 238.547 192.171 238.513 192.628C238.474 193.104 238.306 193.534 238.009 193.917C237.719 194.312 237.351 194.645 236.907 194.915Z" fill="black"/>
<path d="M227.065 205.593C226.751 205.741 226.426 205.755 226.089 205.634C225.751 205.513 225.509 205.296 225.361 204.982C225.213 204.669 225.199 204.343 225.32 204.006C225.441 203.669 225.658 203.426 225.972 203.278C226.285 203.13 226.61 203.116 226.948 203.237C227.285 203.358 227.527 203.575 227.676 203.889C227.824 204.202 227.837 204.528 227.716 204.865C227.595 205.202 227.378 205.445 227.065 205.593ZM224.083 201.715L220.385 193.884C220.146 193.378 219.881 193.082 219.591 192.998C219.289 192.92 218.89 192.997 218.396 193.231L218.217 192.851C218.427 192.766 218.746 192.63 219.174 192.443C219.595 192.274 220.017 192.089 220.439 191.89C220.849 191.696 221.259 191.488 221.67 191.265C222.086 191.053 222.394 190.893 222.593 190.784L222.773 191.164C222.278 191.398 221.971 191.653 221.852 191.931C221.72 192.214 221.774 192.609 222.013 193.115L224.686 198.776C224.942 199.318 225.227 199.671 225.539 199.833C225.857 200.007 226.281 199.969 226.812 199.718L226.991 200.098C226.588 200.244 226.206 200.403 225.844 200.573C225.495 200.738 225.172 200.913 224.875 201.097C224.573 201.299 224.309 201.505 224.083 201.715Z" fill="black"/>
<path d="M209.892 207.347C209.412 207.508 208.993 207.578 208.634 207.557C208.263 207.541 207.932 207.455 207.641 207.3C207.316 207.128 207.039 206.869 206.811 206.523C206.583 206.178 206.36 205.683 206.144 205.038L204.447 199.975C204.269 199.445 204.04 199.12 203.762 199.003C203.471 198.889 203.066 198.92 202.548 199.093L202.414 198.695C202.633 198.636 202.966 198.538 203.413 198.402C203.864 198.279 204.298 198.148 204.715 198.008C205.132 197.868 205.539 197.718 205.935 197.557C206.323 197.413 206.615 197.301 206.813 197.22L206.947 197.618C206.492 197.771 206.201 197.974 206.075 198.227C205.949 198.48 205.975 198.872 206.153 199.403L207.991 204.883C208.122 205.275 208.275 205.625 208.448 205.932C208.621 206.24 208.856 206.457 209.151 206.583C209.434 206.713 209.803 206.702 210.258 206.549C210.789 206.371 211.206 206.062 211.509 205.623C211.799 205.189 211.968 204.668 212.018 204.06C212.059 203.47 211.972 202.852 211.755 202.208L210.344 197.998C210.166 197.467 209.95 197.139 209.697 197.013C209.444 196.886 209.09 196.9 208.635 197.052L208.501 196.654C208.708 196.599 209.015 196.51 209.424 196.387C209.824 196.281 210.233 196.158 210.65 196.018C211.067 195.878 211.493 195.721 211.927 195.548C212.365 195.387 212.69 195.264 212.9 195.179L213.034 195.577C212.516 195.751 212.181 195.969 212.029 196.23C211.865 196.496 211.872 196.895 212.05 197.426L214.041 203.361C214.231 203.93 214.472 204.313 214.764 204.511C215.059 204.721 215.485 204.733 216.041 204.546L216.175 204.945C215.758 205.042 215.359 205.155 214.98 205.282C214.613 205.405 214.272 205.54 213.956 205.689C213.632 205.854 213.345 206.027 213.097 206.209L212.347 203.971C212.306 204.941 212.05 205.688 211.579 206.211C211.099 206.752 210.537 207.13 209.892 207.347Z" fill="black"/>
<path d="M194.118 211.35C193.698 211.43 193.282 211.456 192.87 211.426C192.457 211.396 192.073 211.307 191.719 211.158C191.38 211.019 191.107 210.833 190.9 210.602C190.695 210.383 190.564 210.123 190.506 209.822C190.438 209.468 190.484 209.174 190.643 208.94C190.804 208.719 191.035 208.58 191.337 208.522C191.625 208.467 191.896 208.504 192.151 208.631C192.394 208.761 192.545 208.984 192.605 209.298C192.663 209.599 192.63 209.856 192.508 210.07C192.373 210.286 192.199 210.441 191.987 210.536C192.163 210.747 192.436 210.898 192.807 210.99C193.164 211.085 193.533 211.096 193.912 211.023C194.24 210.96 194.552 210.819 194.849 210.599C195.147 210.379 195.398 210.06 195.603 209.641C195.81 209.234 195.939 208.701 195.989 208.039C196.041 207.391 195.978 206.602 195.8 205.673C195.58 204.52 195.274 203.629 194.881 202.998C194.489 202.367 194.055 201.941 193.578 201.72C193.091 201.515 192.592 201.461 192.081 201.558C191.74 201.624 191.406 201.755 191.077 201.954C190.749 202.153 190.455 202.426 190.196 202.774C189.939 203.136 189.747 203.587 189.62 204.127L189.22 204.061C189.271 203.617 189.406 203.15 189.624 202.66C189.845 202.183 190.172 201.761 190.603 201.393C191.035 201.025 191.605 200.774 192.312 200.639C193.124 200.483 193.898 200.552 194.632 200.846C195.367 201.14 196.005 201.636 196.546 202.333C197.076 203.046 197.444 203.94 197.649 205.013C197.855 206.087 197.846 207.066 197.621 207.951C197.386 208.851 196.965 209.597 196.359 210.188C195.755 210.792 195.008 211.18 194.118 211.35Z" fill="black"/>
<path d="M178.411 213.273C177.239 213.342 176.307 213.036 175.612 212.356C174.905 211.69 174.507 210.604 174.419 209.1L181.466 208.685L181.509 209.063L176.358 209.367C176.369 210.021 176.458 210.616 176.623 211.154C176.789 211.705 177.028 212.139 177.341 212.454C177.64 212.771 178.016 212.915 178.468 212.889C179.081 212.853 179.608 212.514 180.051 211.874C180.481 211.234 180.703 210.246 180.718 208.91L180.654 208.833C180.669 208.632 180.676 208.411 180.675 208.171C180.674 207.931 180.667 207.691 180.652 207.451C180.599 206.546 180.407 205.776 180.076 205.141C179.744 204.506 179.336 204.029 178.849 203.711C178.351 203.406 177.848 203.269 177.343 203.298C176.943 203.322 176.567 203.404 176.215 203.545C175.864 203.699 175.543 203.932 175.254 204.243C174.966 204.554 174.722 204.962 174.525 205.468L174.116 205.332C174.237 204.884 174.452 204.444 174.76 204.011C175.068 203.579 175.468 203.215 175.958 202.919C176.449 202.636 177.027 202.476 177.692 202.436C178.651 202.38 179.489 202.551 180.207 202.949C180.912 203.349 181.473 203.923 181.891 204.673C182.297 205.437 182.529 206.325 182.589 207.337C182.658 208.508 182.531 209.524 182.208 210.385C181.885 211.258 181.398 211.942 180.746 212.434C180.094 212.94 179.316 213.22 178.411 213.273Z" fill="black"/>
<path d="M151.45 211.988C150.541 211.846 149.857 211.516 149.398 210.999C148.924 210.493 148.75 209.838 148.876 209.034C148.959 208.507 149.162 208.026 149.487 207.591C149.796 207.168 150.183 206.769 150.646 206.396C151.107 206.037 151.594 205.688 152.106 205.35C152.616 205.025 153.112 204.698 153.596 204.369C154.077 204.053 154.494 203.72 154.845 203.37L150.834 202.742C150.294 202.657 149.94 202.676 149.773 202.798C149.603 202.933 149.463 203.181 149.353 203.542L149.017 203.489C149.126 202.791 149.204 202.25 149.251 201.866C149.295 201.495 149.328 201.156 149.349 200.849C149.464 200.894 149.678 200.948 149.992 201.01C150.306 201.073 150.666 201.143 151.073 201.22C151.481 201.284 151.883 201.347 152.278 201.409L156.902 202.134L156.849 202.47C156.386 202.842 155.839 203.229 155.21 203.63C154.578 204.044 153.96 204.5 153.355 204.999C152.735 205.509 152.201 206.08 151.751 206.711C151.286 207.354 150.989 208.083 150.861 208.9C150.743 209.651 150.837 210.219 151.141 210.604C151.429 211 151.883 211.247 152.502 211.344C153.029 211.426 153.542 211.344 154.039 211.099C154.534 210.866 155.002 210.467 155.441 209.901L155.73 210.129C155.466 210.519 155.14 210.873 154.753 211.19C154.351 211.519 153.881 211.762 153.343 211.921C152.792 212.077 152.161 212.1 151.45 211.988Z" fill="black"/>
<path d="M134.662 208.188C133.755 207.918 133.019 207.469 132.455 206.841C131.875 206.223 131.499 205.477 131.327 204.605C131.156 203.733 131.223 202.786 131.528 201.764C131.833 200.742 132.312 199.883 132.965 199.187C133.614 198.504 134.373 198.035 135.242 197.78C136.095 197.533 137.007 197.555 137.978 197.844C138.859 198.107 139.59 198.548 140.171 199.167C140.748 199.798 141.129 200.551 141.313 201.427C141.48 202.312 141.411 203.265 141.106 204.288C140.805 205.297 140.336 206.145 139.7 206.832C139.051 207.515 138.292 207.984 137.423 208.24C136.553 208.495 135.633 208.478 134.662 208.188ZM134.938 207.895C135.755 208.139 136.562 207.906 137.358 207.198C138.141 206.485 138.765 205.349 139.23 203.791C139.573 202.641 139.715 201.674 139.657 200.891C139.594 200.121 139.387 199.51 139.035 199.057C138.67 198.601 138.226 198.294 137.702 198.138C136.872 197.89 136.065 198.123 135.282 198.835C134.495 199.56 133.869 200.702 133.404 202.261C133.061 203.411 132.921 204.371 132.983 205.141C133.042 205.924 133.249 206.535 133.605 206.975C133.957 207.428 134.401 207.735 134.938 207.895Z" fill="black"/>
<path d="M118.862 202.227L122.281 194.488C122.54 193.903 122.581 193.447 122.404 193.121C122.227 192.795 121.822 192.492 121.187 192.212L121.357 191.828C121.596 191.948 121.95 192.119 122.42 192.341C122.873 192.57 123.349 192.795 123.849 193.016C124.41 193.264 124.959 193.492 125.494 193.699C126.011 193.913 126.413 194.076 126.699 194.188L126.529 194.572C125.92 194.302 125.401 194.19 124.973 194.234C124.54 194.291 124.191 194.618 123.927 195.215L121.972 199.643C121.713 200.228 121.583 200.688 121.581 201.022C121.579 201.357 121.718 201.637 121.997 201.862C122.264 202.082 122.672 202.313 123.221 202.556L123.043 202.958C122.154 202.595 121.388 202.351 120.743 202.226C120.098 202.102 119.471 202.102 118.862 202.227Z" fill="black"/>
<path d="M104.267 199.027C103.752 198.719 103.337 198.348 103.023 197.912C102.69 197.481 102.504 197.012 102.463 196.507C102.405 196.006 102.529 195.498 102.837 194.983C103.253 194.285 103.851 193.803 104.63 193.538C105.409 193.273 106.296 193.127 107.291 193.099L107.285 193.421C106.837 193.496 106.438 193.63 106.089 193.826C105.728 194.014 105.405 194.256 105.12 194.552C104.828 194.859 104.57 195.202 104.344 195.579C103.941 196.255 103.76 196.884 103.8 197.467C103.822 198.055 104.103 198.509 104.641 198.83C105.099 199.104 105.581 199.166 106.089 199.019C106.589 198.882 107.01 198.528 107.352 197.955C107.673 197.417 107.83 196.867 107.824 196.304C107.811 195.753 107.703 195.192 107.501 194.621C107.298 194.05 107.069 193.471 106.814 192.884C106.551 192.308 106.326 191.724 106.137 191.13C105.941 190.547 105.85 189.957 105.865 189.36C105.872 188.775 106.05 188.19 106.398 187.606C106.788 186.954 107.29 186.477 107.904 186.175C108.518 185.874 109.188 185.754 109.913 185.814C110.627 185.867 111.344 186.108 112.065 186.538C112.672 186.9 113.178 187.342 113.582 187.862C113.979 188.394 114.211 188.967 114.279 189.582C114.34 190.208 114.179 190.842 113.797 191.483C113.442 192.079 112.992 192.533 112.449 192.845C111.887 193.162 111.277 193.365 110.619 193.454C109.942 193.547 109.254 193.556 108.554 193.48L108.56 193.157C109.395 193.112 110.103 192.874 110.685 192.445C111.26 192.027 111.742 191.492 112.132 190.84C112.425 190.347 112.639 189.846 112.772 189.336C112.888 188.83 112.879 188.351 112.745 187.898C112.593 187.451 112.27 187.08 111.778 186.786C111.205 186.445 110.595 186.337 109.946 186.462C109.278 186.591 108.726 187.023 108.289 187.756C107.954 188.317 107.786 188.884 107.786 189.458C107.773 190.025 107.856 190.603 108.034 191.19C108.204 191.788 108.414 192.387 108.663 192.985C108.9 193.577 109.107 194.166 109.285 194.754C109.462 195.341 109.547 195.927 109.54 196.513C109.52 197.091 109.344 197.661 109.009 198.222C108.688 198.76 108.27 199.148 107.757 199.385C107.231 199.615 106.669 199.699 106.07 199.636C105.452 199.578 104.851 199.375 104.267 199.027Z" fill="black"/>
<path d="M86.5609 178.093C86.1699 177.73 85.9086 177.306 85.7772 176.82C85.6367 176.344 85.6187 175.864 85.7231 175.378C85.8178 174.884 86.0465 174.442 86.4092 174.051C86.7629 173.67 87.1871 173.408 87.6818 173.267C88.1577 173.127 88.6382 173.109 89.1233 173.213C89.6084 173.317 90.0464 173.551 90.4374 173.914C90.8187 174.267 91.0844 174.687 91.2347 175.172C91.3752 175.648 91.3932 176.128 91.2888 176.613C91.1752 177.108 90.9417 177.546 90.588 177.927C90.2253 178.318 89.806 178.584 89.3301 178.725C88.8542 178.865 88.3737 178.883 87.8886 178.779C87.3847 178.675 86.9421 178.446 86.5609 178.093Z" fill="black"/>
</svg>
